<?xml version="1.0" standalone="no"?>
<!DOCTYPE svg PUBLIC "-//W3C//DTD SVG 20010904//EN"
 "http://www.w3.org/TR/2001/REC-SVG-20010904/DTD/svg10.dtd">
<svg version="1.0" xmlns="http://www.w3.org/2000/svg"
 width="500.000000pt" height="500.000000pt" viewBox="0 0 500.000000 500.000000"
 preserveAspectRatio="xMidYMid meet">

<g transform="translate(0.000000,500.000000) scale(0.100000,-0.100000)"
fill="#000000" stroke="none">
<path d="M1617 3103 c-12 -11 -8 -78 6 -96 9 -13 20 -16 45 -11 27 6 32 11 32
35 0 19 -5 29 -15 29 -8 0 -15 -5 -15 -11 0 -5 5 -7 11 -3 7 4 10 -1 7 -12 -2
-12 -13 -20 -31 -22 -26 -3 -27 -2 -27 44 l0 47 35 -6 c21 -3 33 -2 30 4 -7
10 -68 12 -78 2z"/>
<path d="M1761 3078 c-5 -13 -12 -37 -15 -54 -6 -29 -4 -33 25 -43 38 -13 39
-13 39 -2 0 5 -13 11 -29 14 -23 5 -28 10 -24 26 4 16 11 19 37 15 30 -4 31
-4 6 8 -14 6 -26 13 -28 14 -1 0 0 8 4 17 4 13 11 14 31 6 14 -5 28 -7 31 -4
8 8 0 12 -35 20 -28 6 -34 3 -42 -17z"/>
<path d="M1500 3077 c-14 -6 -26 -12 -28 -12 -7 -5 42 -105 52 -105 22 0 56
31 56 51 0 33 -30 80 -50 78 -3 0 -16 -5 -30 -12z m59 -39 c11 -30 9 -35 -11
-52 l-23 -18 -18 41 c-20 47 -16 61 18 61 17 0 26 -8 34 -32z"/>
<path d="M1892 3041 c9 -15 7 -24 -9 -47 -30 -44 -35 -54 -26 -54 5 0 19 18
33 40 19 31 30 40 45 36 15 -4 13 1 -10 19 -36 30 -50 32 -33 6z"/>
<path d="M1378 3004 c-8 -7 35 -114 45 -114 5 0 6 9 2 19 -7 23 24 45 49 35
36 -14 12 13 -34 39 -55 30 -54 29 -62 21z m46 -29 c15 -11 17 -18 9 -26 -14
-14 -29 -5 -36 21 -6 24 1 25 27 5z"/>
<path d="M1991 2974 c12 -15 9 -21 -25 -50 -22 -19 -37 -37 -34 -40 3 -3 22 9
42 27 30 26 39 29 51 19 24 -20 17 2 -10 33 -25 29 -47 39 -24 11z"/>
<path d="M1286 2888 c-9 -12 -16 -26 -16 -29 0 -4 21 -19 47 -34 l46 -28 19
23 c28 34 22 54 -20 73 -50 22 -58 21 -76 -5z m49 2 c9 -14 -17 -49 -32 -43
-16 6 -17 25 -1 41 14 14 25 15 33 2z m43 -22 c14 -14 -2 -48 -23 -48 -21 0
-27 17 -15 40 12 23 21 25 38 8z"/>
<path d="M1250 2708 c14 -11 20 -23 14 -25 -6 -2 -20 -11 -30 -19 -18 -15 -18
-15 1 -8 11 4 40 13 65 20 32 9 38 13 20 14 -14 0 -36 9 -50 20 -34 26 -51 25
-20 -2z"/>
<path d="M1650 2550 l0 -170 118 0 c90 0 123 -4 140 -16 22 -15 29 -57 14 -82
-11 -17 -67 -32 -119 -32 l-43 0 0 -51 0 -52 83 5 c133 7 197 60 197 161 0 45
-4 54 -37 85 l-38 36 34 33 c32 32 33 35 29 100 -4 62 -7 68 -41 99 -49 41
-102 54 -231 54 l-106 0 0 -170z m229 59 c44 -16 59 -54 33 -88 -17 -23 -28
-26 -86 -29 l-66 -3 0 66 0 65 44 0 c23 0 58 -5 75 -11z"/>
<path d="M2067 2713 c-4 -3 -7 -132 -7 -285 l0 -278 135 0 135 0 0 55 0 55
-80 0 -80 0 0 60 0 60 115 0 115 0 0 55 0 55 -115 0 -115 0 0 60 0 60 80 0 80
0 0 55 0 55 -128 0 c-71 0 -132 -3 -135 -7z"/>
<path d="M2634 2705 c-74 -16 -110 -34 -145 -72 -53 -57 -64 -90 -64 -198 0
-115 17 -161 82 -214 54 -44 114 -62 236 -68 l107 -6 0 50 0 50 -100 6 c-110
6 -159 24 -194 71 -30 40 -30 172 0 212 35 48 70 67 129 72 l55 4 0 -61 0 -61
55 0 55 0 0 115 0 115 -77 -1 c-43 0 -106 -7 -139 -14z"/>
<path d="M2875 2707 c-3 -7 -4 -126 -3 -266 l3 -254 70 81 c39 44 73 81 77 81
4 1 44 -44 89 -99 l82 -100 70 0 c64 0 68 1 56 17 -8 9 -60 71 -116 137 -57
67 -103 123 -103 126 1 3 50 65 110 139 61 73 110 138 110 143 0 5 -28 8 -62
6 l-63 -3 -105 -129 -105 -128 -3 131 -3 131 -50 0 c-31 0 -51 -5 -54 -13z"/>
<path d="M1278 2603 c-27 -8 -48 -18 -48 -23 0 -5 23 -12 50 -16 l50 -7 -40
-30 c-22 -17 -36 -35 -32 -39 5 -5 33 -1 63 8 29 9 48 19 41 21 -7 3 -27 0
-45 -6 l-32 -11 33 28 c17 16 32 31 32 34 0 3 -19 9 -42 13 l-43 8 38 10 c20
6 37 14 37 19 0 10 -3 9 -62 -9z"/>
<path d="M1343 2443 c-42 -60 -32 -71 44 -45 32 11 48 21 37 21 -12 1 -38 -6
-58 -14 -39 -16 -44 -11 -21 19 12 16 17 17 30 6 9 -8 15 -8 15 -2 0 6 -5 14
-10 17 -7 4 -7 13 0 26 20 37 -5 18 -37 -28z"/>
</g>
</svg>
