<?xml version="1.0" standalone="no"?>
<!DOCTYPE svg PUBLIC "-//W3C//DTD SVG 20010904//EN"
 "http://www.w3.org/TR/2001/REC-SVG-20010904/DTD/svg10.dtd">
<svg version="1.0" xmlns="http://www.w3.org/2000/svg"
 width="245.000000pt" height="124.000000pt" viewBox="0 0 245.000000 124.000000"
 preserveAspectRatio="xMidYMid meet">

<g transform="translate(0.000000,124.000000) scale(0.100000,-0.100000)"
fill="#000000" stroke="none">
<path d="M57 1128 c6 -7 16 -31 23 -53 18 -57 26 -61 40 -23 l13 33 10 -32 c5
-18 13 -33 17 -33 8 0 43 110 36 117 -2 3 -10 -14 -17 -37 l-13 -43 -18 42
c-20 47 -36 54 -30 12 6 -42 -12 -46 -27 -5 -7 19 -19 34 -28 34 -11 0 -13 -4
-6 -12z"/>
<path d="M230 1130 c0 -5 5 -10 11 -10 5 0 7 5 4 10 -3 6 -8 10 -11 10 -2 0
-4 -4 -4 -10z"/>
<path d="M837 1133 c-15 -14 -5 -38 26 -64 29 -25 30 -28 13 -35 -13 -5 -23
-1 -33 12 -14 19 -15 19 -11 -1 4 -24 49 -32 67 -12 16 20 6 39 -30 59 -17 10
-27 22 -24 28 9 14 42 12 48 -2 3 -8 6 -6 6 5 1 12 -7 17 -27 17 -16 0 -32 -3
-35 -7z"/>
<path d="M1028 1080 c2 -33 8 -60 13 -60 13 0 7 112 -6 117 -6 2 -9 -20 -7
-57z"/>
<path d="M478 1120 c-2 -6 -2 -31 0 -55 3 -38 7 -45 26 -45 15 0 17 3 8 9 -8
5 -13 23 -12 42 1 19 2 40 1 47 -1 14 -18 16 -23 2z"/>
<path d="M228 1065 c2 -25 8 -45 14 -45 12 0 6 82 -7 87 -6 2 -9 -15 -7 -42z"/>
<path d="M278 1064 c5 -52 22 -60 22 -10 0 33 14 55 27 42 3 -3 10 -23 14 -43
l7 -38 -1 45 c-2 44 -3 45 -37 47 l-35 2 3 -45z"/>
<path d="M383 1094 c-6 -16 13 -37 41 -47 6 -2 7 -8 3 -13 -4 -4 -17 -2 -29 5
-17 10 -19 10 -16 -1 3 -7 18 -13 34 -13 38 0 44 27 8 44 -20 9 -24 15 -16 23
8 8 15 8 27 -2 13 -11 14 -10 9 4 -8 21 -53 21 -61 0z"/>
<path d="M550 1096 c-28 -35 11 -93 48 -70 35 22 22 84 -18 84 -10 0 -23 -7
-30 -14z m45 -32 c0 -19 -5 -29 -15 -29 -16 0 -25 28 -16 51 10 25 31 10 31
-22z"/>
<path d="M649 1064 c4 -54 19 -58 23 -6 4 46 22 45 26 -3 2 -19 8 -35 13 -35
6 0 9 19 7 43 -3 40 -4 42 -38 43 l-35 2 4 -44z"/>
<path d="M935 1100 c-4 -6 3 -9 16 -7 29 3 36 -21 7 -25 -15 -2 -23 -10 -23
-23 0 -15 8 -21 33 -23 30 -3 32 -2 32 30 0 19 -5 39 -12 46 -15 15 -45 16
-53 2z m43 -52 c-6 -18 -28 -21 -28 -4 0 9 7 16 16 16 9 0 14 -5 12 -12z"/>
<path d="M1092 1101 c-8 -5 -12 -22 -10 -42 2 -29 7 -34 31 -37 15 -2 27 1 27
7 0 6 -6 8 -13 5 -8 -3 -20 2 -27 11 -11 13 -8 15 19 15 32 0 41 16 19 38 -14
14 -28 15 -46 3z m38 -22 c0 -5 -10 -9 -21 -9 -18 0 -19 2 -9 15 12 15 30 12
30 -6z"/>
<path d="M1168 1103 c7 -3 12 -22 12 -44 0 -21 5 -39 10 -39 6 0 10 15 10 34
0 41 17 57 24 24 3 -13 7 -32 9 -43 4 -15 5 -13 6 7 3 64 31 81 31 18 0 -22 5
-40 11 -40 6 0 9 17 7 43 l-3 42 -65 1 c-36 1 -59 -1 -52 -3z"/>
<path d="M750 1070 c0 -5 11 -10 25 -10 14 0 25 5 25 10 0 6 -11 10 -25 10
-14 0 -25 -4 -25 -10z"/>
<path d="M60 965 c0 -17 2 -17 10 -5 6 10 10 11 10 3 0 -8 15 -13 39 -13 22 0
42 5 44 13 4 10 6 10 6 0 1 -7 6 -13 12 -13 5 0 8 4 4 9 -3 5 -1 12 5 16 5 3
10 -1 10 -9 0 -9 7 -16 15 -16 8 0 15 7 15 15 0 18 6 17 -93 18 -71 2 -77 0
-77 -18z"/>
<path d="M250 971 c0 -19 8 -20 125 -20 104 -1 125 2 125 14 0 19 -71 24 -150
12 -14 -2 -35 0 -47 4 -16 6 -23 4 -26 -9 -4 -16 -5 -16 -6 1 -1 24 -21 22
-21 -2z"/>
<path d="M850 735 c0 -11 -12 -15 -50 -15 -47 0 -51 -2 -49 -22 1 -13 1 -85 1
-160 l-2 -138 -90 0 -90 0 0 65 0 65 -30 0 c-23 0 -30 5 -30 19 0 27 -24 43
-62 39 -28 -2 -34 -7 -36 -30 -2 -16 -8 -28 -13 -28 -13 0 -11 58 2 62 7 2 5
9 -5 17 -14 12 -16 9 -16 -33 0 -37 -3 -46 -17 -46 -13 0 -18 -9 -19 -32 -1
-59 -5 -382 -4 -410 l0 -28 345 0 345 0 0 88 c1 61 5 93 15 106 8 11 15 17 15
13 0 -4 9 1 20 10 11 10 20 23 20 30 0 7 5 13 10 13 6 0 10 -5 10 -11 0 -8 4
-8 14 0 13 11 22 62 32 171 2 25 8 63 13 85 21 83 20 85 -60 85 -52 0 -75 4
-87 17 -12 12 -13 18 -4 21 20 6 14 32 -8 32 -11 0 -20 7 -20 15 0 22 -47 19
-53 -2 -4 -17 -5 -17 -6 0 -1 23 -91 26 -91 2z m-183 -647 c-3 -8 -6 -5 -6 6
-1 11 2 17 5 13 3 -3 4 -12 1 -19z m43 7 c0 -8 -7 -15 -15 -15 -8 0 -15 7 -15
15 0 8 7 15 15 15 8 0 15 -7 15 -15z"/>
<path d="M1431 679 c-18 -19 -28 -21 -91 -17 l-70 5 0 -43 c0 -37 -3 -44 -20
-44 -13 0 -20 -7 -20 -20 0 -11 4 -20 9 -20 10 0 22 -100 21 -170 0 -35 4 -48
20 -58 11 -7 20 -8 20 -2 0 5 14 -4 30 -22 17 -17 30 -27 30 -22 1 5 7 -6 15
-25 9 -19 15 -64 15 -107 l0 -74 483 0 482 0 -9 100 -9 100 -32 0 c-28 0 -33
4 -39 31 -3 17 -6 66 -6 109 0 51 -4 81 -13 88 -14 12 -57 5 -57 -9 0 -5 -9
-9 -20 -9 -11 0 -20 7 -20 15 0 8 -9 15 -20 15 -11 0 -20 -7 -20 -15 0 -12
-14 -15 -65 -15 l-65 0 0 -80 0 -80 -70 0 -70 0 0 101 c0 76 -3 100 -12 97 -9
-3 -15 -36 -18 -98 -4 -61 -10 -95 -18 -98 -6 -2 -12 -10 -12 -18 0 -20 -18
-17 -23 4 -4 16 -5 16 -6 0 0 -10 -8 -18 -17 -18 -9 0 -22 -7 -29 -16 -8 -11
-19 -14 -33 -10 -22 7 -22 11 -22 212 l0 205 -69 -2 c-53 -2 -73 2 -86 14 -22
23 -40 21 -64 -4z"/>
<path d="M530 600 c0 -5 5 -10 10 -10 6 0 10 5 10 10 0 6 -4 10 -10 10 -5 0
-10 -4 -10 -10z"/>
<path d="M140 515 c0 -8 -9 -15 -20 -15 -18 0 -20 -7 -20 -83 0 -46 -3 -145
-7 -220 l-6 -137 111 0 112 0 0 204 c0 112 -3 211 -6 220 -3 9 -15 16 -25 16
-10 0 -19 7 -19 15 0 12 -13 15 -60 15 -47 0 -60 -3 -60 -15z"/>
<path d="M1201 464 c0 -11 3 -14 6 -6 3 7 2 16 -1 19 -3 4 -6 -2 -5 -13z"/>
<path d="M1202 360 c0 -14 2 -19 5 -12 2 6 2 18 0 25 -3 6 -5 1 -5 -13z"/>
<path d="M1190 130 c0 -20 5 -30 15 -30 10 0 15 10 15 30 0 20 -5 30 -15 30
-10 0 -15 -10 -15 -30z"/>
<path d="M1110 120 c0 -11 5 -20 10 -20 6 0 10 9 10 20 0 11 -4 20 -10 20 -5
0 -10 -9 -10 -20z"/>
<path d="M1290 120 c0 -11 5 -20 10 -20 6 0 10 9 10 20 0 11 -4 20 -10 20 -5
0 -10 -9 -10 -20z"/>
</g>
</svg>
